# xmcd
#
# Track frame offsets:
#        150
#        29980
#        47287
#        66360
#        93040
#        118767
#        143695
#        163297
#        187465
#        209932
#
# Disc length: 3055 seconds
#
# Revision: 1
# Processed by: cddbd v1.5.1PL0 Copyright (c) Steve Scherf et al.
# Submitted via: ExactAudioCopy v0.95a5
#
DISCID=a00bed0a
DTITLE=Sarah Jane Morris - Heaven
DYEAR=1992
DGENRE=Pop
TTITLE0=Heart To Heart
TTITLE1=You'll Never Know
TTITLE2=I Am A Woman
TTITLE3=Cry
TTITLE4=Heaven
TTITLE5=Never Gonna Give You Up
TTITLE6=Tomorrow
TTITLE7=I'm Missing You
TTITLE8=The Right Track
TTITLE9=Heaven (reprise)
EXTD=
EXTT0=
EXTT1=
EXTT2=
EXTT3=
EXTT4=
EXTT5=
EXTT6=
EXTT7=
EXTT8=
EXTT9=
PLAYORDER=
